<svg width="32" height="33" viewBox="0 0 32 33" fill="none" xmlns="http://www.w3.org/2000/svg">
<path d="M16 4.14748C12.6406 4.14748 9.41877 5.482 7.04331 7.85746C4.66785 10.2329 3.33333 13.4547 3.33333 16.8141C3.33333 20.1736 4.66785 23.3954 7.04331 25.7708C9.41877 28.1463 12.6406 29.4808 16 29.4808C19.3594 29.4808 22.5812 28.1463 24.9567 25.7708C27.3321 23.3954 28.6667 20.1736 28.6667 16.8141C28.6667 13.4547 27.3321 10.2329 24.9567 7.85746C22.5812 5.482 19.3594 4.14748 16 4.14748Z" fill="#039BE5"/>
<path d="M17.7147 20.1715H20.9927L21.5073 16.8415H17.714V15.0215C17.714 13.6381 18.166 12.4115 19.46 12.4115H21.5393V9.50548C21.174 9.45614 20.4013 9.34814 18.9413 9.34814C15.8927 9.34814 14.1053 10.9581 14.1053 14.6261V16.8415H10.9713V20.1715H14.1053V29.3241C14.726 29.4175 15.3547 29.4808 16 29.4808C16.5833 29.4808 17.1527 29.4275 17.7147 29.3515V20.1715Z" fill="white"/>
</svg>
