<svg width="33" height="33" viewBox="0 0 33 33" fill="none" xmlns="http://www.w3.org/2000/svg">
<path d="M29.7407 14.2028H28.6667V14.1475H16.6667V19.4808H24.202C23.1027 22.5855 20.1487 24.8142 16.6667 24.8142C12.2487 24.8142 8.66666 21.2322 8.66666 16.8142C8.66666 12.3962 12.2487 8.81415 16.6667 8.81415C18.706 8.81415 20.5613 9.58349 21.974 10.8402L25.7453 7.06882C23.364 4.84949 20.1787 3.48082 16.6667 3.48082C9.30333 3.48082 3.33333 9.45082 3.33333 16.8142C3.33333 24.1775 9.30333 30.1475 16.6667 30.1475C24.03 30.1475 30 24.1775 30 16.8142C30 15.9202 29.908 15.0475 29.7407 14.2028Z" fill="#FFC107"/>
<path d="M4.87065 10.6082L9.25132 13.8208C10.4367 10.8862 13.3073 8.81415 16.6667 8.81415C18.706 8.81415 20.5613 9.58349 21.974 10.8402L25.7453 7.06882C23.364 4.84949 20.1787 3.48082 16.6667 3.48082C11.5453 3.48082 7.10398 6.37215 4.87065 10.6082Z" fill="#FF3D00"/>
<path d="M16.6667 30.1475C20.1107 30.1475 23.24 28.8295 25.606 26.6861L21.4793 23.1941C20.1407 24.2081 18.4767 24.8141 16.6667 24.8141C13.1987 24.8141 10.254 22.6028 9.14466 19.5168L4.79666 22.8668C7.00333 27.1848 11.4847 30.1475 16.6667 30.1475Z" fill="#4CAF50"/>
<path d="M29.7407 14.2028H28.6667V14.1475H16.6667V19.4808H24.202C23.674 20.9721 22.7147 22.2581 21.4773 23.1948C21.478 23.1941 21.4787 23.1941 21.4793 23.1935L25.606 26.6855C25.314 26.9508 30 23.4808 30 16.8141C30 15.9201 29.908 15.0475 29.7407 14.2028Z" fill="#1976D2"/>
</svg>
