<svg width="33" height="33" viewBox="0 0 33 33" fill="none" xmlns="http://www.w3.org/2000/svg">
<g clip-path="url(#clip0_11_40)">
<path d="M22 30.1475C20.8147 30.1475 19.9993 29.7628 19.28 29.4235C18.5867 29.0968 17.9873 28.8141 17 28.8141C16.0127 28.8141 15.4133 29.0968 14.72 29.4235C14.0007 29.7628 13.1853 30.1475 12 30.1475C9.11599 30.1475 4.33332 23.5281 4.33332 16.4808C4.33332 11.8075 7.55465 8.14748 11.6667 8.14748C13.018 8.14748 13.8393 8.53481 14.564 8.87615C15.252 9.20081 15.8467 9.48081 17 9.48081C18.1533 9.48081 18.748 9.20081 19.436 8.87615C20.1607 8.53481 20.982 8.14748 22.3333 8.14748C24.1093 8.14748 25.6887 8.80215 27.028 10.0948C27.2533 10.3121 27.364 10.6235 27.326 10.9348C27.288 11.2461 27.1067 11.5215 26.836 11.6788C25.292 12.5768 24.3333 14.4801 24.3333 16.6475C24.3333 19.0881 25.6693 21.1868 27.6573 21.8681C27.918 21.9575 28.13 22.1501 28.2433 22.4008C28.3573 22.6508 28.3633 22.9375 28.2587 23.1928C26.6407 27.1575 23.9493 30.1475 22 30.1475ZM17.3333 7.48081C17.0947 7.48081 16.8613 7.39548 16.6773 7.23548C16.4353 7.02481 16.308 6.71015 16.3373 6.38948C16.3453 6.30748 16.5393 4.35948 18.066 2.80148C19.502 1.33481 20.9 0.898813 21.054 0.853479C21.38 0.758813 21.732 0.836146 21.988 1.05881C22.2447 1.28081 22.3707 1.61815 22.3233 1.95481C22.3007 2.11548 22.064 3.57881 20.8353 5.22081C19.52 6.97815 17.6413 7.43548 17.562 7.45415C17.486 7.47215 17.4093 7.48081 17.3333 7.48081Z" fill="black"/>
</g>
<defs>
<clipPath id="clip0_11_40">
<rect width="32" height="32" fill="white" transform="translate(0.333321 0.814148)"/>
</clipPath>
</defs>
</svg>
