<?xml version="1.0" encoding="utf-8"?>
<!-- Generator: Adobe Illustrator 26.5.0, SVG Export Plug-In . SVG Version: 6.00 Build 0)  -->
<svg version="1.1" id="Layer_1" xmlns="http://www.w3.org/2000/svg" xmlns:xlink="http://www.w3.org/1999/xlink" x="0px" y="0px"
	 viewBox="0 0 786.8 179.9" style="enable-background:new 0 0 786.8 179.9;" xml:space="preserve">
<style type="text/css">
	.st0{fill:#FFFFFF;}
	.st1{fill:#404040;}
	.st2{fill:url(#SVGID_1_);}
	.st3{fill:url(#SVGID_00000141438378297610868060000014588056451901461127_);}
	.st4{fill:#FC9526;}
	.st5{fill:url(#SVGID_00000181066972500887672610000011448400603380564888_);}
</style>
<g>
	<g>
		<g>
			<path class="st0" d="M301.7,128"/>
		</g>
	</g>
	<g>
		<path class="st1" d="M256.8,93.1v-4.9c0-19.6-17.7-32.2-45.1-32.2c-28.4,0-46,14.4-46,37.6v29.9c0,23.2,17.6,37.6,46,37.6
			c31.2,0,45.1-16.3,45.1-32.4v-4.9h-15.5v3.2c0,15.5-16.1,18.8-29.6,18.8c-13.6,0-29.9-4.2-29.9-24.3V95.7
			c0-20.1,16.3-24.4,29.9-24.4c24.4,0,29.6,10.1,29.6,18.6v3.2H256.8z"/>
		<path class="st1" d="M328.8,56c-13.3,0-24.5,3.4-32.3,9.9c-7.1,5.9-11.1,14-11.1,22.9v5.8H301v-3.7c0-12.6,9.9-19.5,27.8-19.5
			c19.9,0,28,5.9,28,20.5v11.1c-8.2-1.8-20.2-3.6-30.3-3.6c-29.9,0-44.4,10-44.4,30.7c0,20.1,15.3,31.2,43,31.2
			c29.9,0,47.7-13.1,47.7-35V89.3C372.9,74.1,365.3,56,328.8,56z M356.8,117.9v6c0,14.8-10.5,22.3-31.3,22.3
			c-23.6,0-27.1-10.1-27.1-16.2c0-11.2,7.4-15.8,25.6-15.8C334.5,114.2,346.1,115.5,356.8,117.9z"/>
		<path class="st1" d="M447.4,56c-27.1,0-44.6,14.8-44.6,37.6v65.8h16.1V95.7c0-15.7,10.1-24.4,28.5-24.4
			c23.4,0,28.4,13.2,28.4,24.4v63.7h16.1V93.6C491.8,70.8,474.4,56,447.4,56z"/>
		<path class="st1" d="M595.7,24.7v40.8c-9.2-6.1-20.7-9.5-32.2-9.5c-27.1,0-42.7,13.4-42.7,36.8v30.8c0,23.2,17.5,37.6,45.6,37.6
			c27.9,0,45.3-14.4,45.3-37.6V24.7H595.7z M595.7,84.1v37.4c0,16.2-9.8,24.3-29.2,24.3c-19.6,0-29.6-8.2-29.6-24.3V95
			c0-16.4,8.2-23.7,26.4-23.7C575.6,71.3,588.7,77.6,595.7,84.1z"/>
		<rect x="642" y="24.7" class="st1" width="16.1" height="134.8"/>
		<path class="st1" d="M778.9,115.2V93.6c0-23.2-17.6-37.6-45.8-37.6c-28.4,0-46,14.4-46,37.6v29.9c0,23.2,17.6,37.6,46,37.6
			c13.3,0,24.8-3.4,33.1-9.8c7.6-5.9,12-14.1,12-22.6v-4.9h-15.5v3.2c0,11.8-11.1,18.8-29.6,18.8c-19.7,0-29.8-8.2-29.9-24.3v-6.2
			H778.9z M703.3,95.7c-0.1-7.1,1.9-12.7,5.9-16.7c5-5,13-7.6,23.9-7.6c13.6,0,29.7,4.2,29.7,24.4v4.3h-59.5L703.3,95.7z"/>
	</g>
	<g>
		<linearGradient id="SVGID_1_" gradientUnits="userSpaceOnUse" x1="82.1094" y1="38.2304" x2="82.1094" y2="38.2304">
			<stop  offset="0" style="stop-color:#FA141B"/>
			<stop  offset="0.4585" style="stop-color:#FA3E1D"/>
			<stop  offset="0.5837" style="stop-color:#FB5A20"/>
			<stop  offset="0.7564" style="stop-color:#FB7A23"/>
			<stop  offset="0.9014" style="stop-color:#FC8E25"/>
			<stop  offset="1" style="stop-color:#FC9526"/>
		</linearGradient>
		<path class="st2" d="M82.1,38.2"/>
		
			<linearGradient id="SVGID_00000109015822524923866140000003888684244473871528_" gradientUnits="userSpaceOnUse" x1="72.8503" y1="124.1226" x2="60.827" y2="55.9351">
			<stop  offset="0" style="stop-color:#FA141B"/>
			<stop  offset="0.4585" style="stop-color:#FA3E1D"/>
			<stop  offset="0.5837" style="stop-color:#FB5A20"/>
			<stop  offset="0.7564" style="stop-color:#FB7A23"/>
			<stop  offset="0.9014" style="stop-color:#FC8E25"/>
			<stop  offset="1" style="stop-color:#FC9526"/>
		</linearGradient>
		<path style="fill:url(#SVGID_00000109015822524923866140000003888684244473871528_);" d="M91.5,89.2c0-0.1,0-0.1,0-0.2
			c-0.1-2.8-0.8-5.7-1.9-8.4l-22.6,22.6l-6-6c-3.3-3.3-3.3-8.8,0-12.1L79,67c-2.8-2.9-5.7-5.7-8.5-8.5c-0.9-0.9-1.8-1.8-2.7-2.7
			l-0.9-0.9l0,0l0,0l-0.9,0.9c-0.9,0.9-1.8,1.8-2.7,2.7c-4.4,4.4-8.8,8.8-13.1,13.3c-4.8,4.9-7.6,11.2-7.9,17.3c0,0.1,0,0.1,0,0.2
			c0,0.2,0,0.4,0,0.6c0,0.1,0,0.3,0,0.4c0,0.2,0,0.3,0,0.5c0,0.3,0,0.6,0,0.9c0,0.1,0,0.2,0,0.3c0,0.3,0,0.5,0.1,0.8
			c0,0.1,0,0.1,0,0.2c0.4,3.8,1.8,7.5,4.3,10.8c6,7.9,13.5,14.6,20,21.4l0.2,0.2l0,0l0,0l0.2-0.2c6.5-6.9,14-13.6,20-21.4
			c2.5-3.3,3.9-7,4.3-10.8c0-0.1,0-0.1,0-0.2c0-0.3,0-0.5,0.1-0.8c0-0.1,0-0.2,0-0.3c0-0.3,0-0.6,0-0.9c0-0.2,0-0.3,0-0.5
			c0-0.1,0-0.3,0-0.4C91.5,89.6,91.5,89.4,91.5,89.2z"/>
		<path class="st4" d="M83,46.9L83,46.9c2.7,2.7,5.4,5.4,8.1,8.1l12-12c0,0-0.1-0.1-0.1-0.1l0,0c-0.4-0.4-0.9-0.9-1.3-1.3
			c-3.6-3.6-7.1-7.1-10.7-10.7l-12,12l3.5,3.5C82.6,46.5,82.8,46.7,83,46.9z"/>
		
			<linearGradient id="SVGID_00000174598344648938204880000012040549717702260620_" gradientUnits="userSpaceOnUse" x1="81.0537" y1="170.5691" x2="52.6227" y2="9.3289">
			<stop  offset="0" style="stop-color:#FA141B"/>
			<stop  offset="0.4585" style="stop-color:#FA3E1D"/>
			<stop  offset="0.5837" style="stop-color:#FB5A20"/>
			<stop  offset="0.7564" style="stop-color:#FB7A23"/>
			<stop  offset="0.9014" style="stop-color:#FC8E25"/>
			<stop  offset="1" style="stop-color:#FC9526"/>
		</linearGradient>
		<path style="fill:url(#SVGID_00000174598344648938204880000012040549717702260620_);" d="M125.8,89c0-0.2,0-0.4,0-0.6
			c0-0.2,0-0.5,0-0.7c0-0.2,0-0.5,0-0.7c0-0.1,0-0.2,0-0.3c-0.1-1.1-0.2-2.2-0.3-3.3c0-0.1,0-0.2,0-0.2c0-0.3-0.1-0.7-0.1-1
			c0-0.1,0-0.2,0-0.3c-0.1-0.4-0.1-0.7-0.2-1.1c0-0.1,0-0.2,0-0.2c-0.1-0.4-0.1-0.7-0.2-1.1c0-0.1,0-0.1,0-0.2
			c-0.1-0.4-0.2-0.8-0.2-1.2c0,0,0,0,0-0.1c-1.7-7.8-5-15.4-10-22.4L102.2,68c10.9,17.4,8.3,37.6-7.8,53.7
			c-8.9,8.9-27.5,27.7-27.5,27.7s-18.6-18.8-27.5-27.7c-19.1-19.2-19.2-44.2,0-63.4c3.8-3.8,7.6-7.6,11.4-11.4l0,0l5.1-5.1
			c3.7-3.7,7.3-7.3,11-11c0,0,0,0,0,0l0.1-0.1l0,0l12.1-12.1c0,0,0,0,0,0l0,0c-0.2-0.2-0.4-0.4-0.6-0.6c-2.3-2.3-4.6-4.6-6.8-6.8
			l0,0l-0.1-0.1c-0.2-0.2-0.3-0.3-0.5-0.5c0,0-0.1-0.1-0.1-0.1L67,6.8l0,0l0,0L66.9,7l-0.2-0.2l0,0l0,0l-3.8,3.7
			c0,0-0.1,0.1-0.1,0.1c-0.2,0.2-0.3,0.3-0.5,0.5l-0.1,0.1l0,0c-2.3,2.3-4.6,4.6-6.8,6.8c-0.2,0.2-0.4,0.4-0.6,0.6l0,0c0,0,0,0,0,0
			l0,0c-9.5,9.5-19,19-28.5,28.6c-9,9.1-14.7,19.7-17.1,30.8c0,0,0,0,0,0.1c-0.1,0.4-0.2,0.8-0.2,1.2c0,0.1,0,0.1,0,0.2
			c-0.1,0.4-0.1,0.7-0.2,1.1c0,0.1,0,0.2,0,0.2c-0.1,0.4-0.1,0.7-0.2,1.1c0,0.1,0,0.2,0,0.3c0,0.3-0.1,0.7-0.1,1c0,0.1,0,0.2,0,0.3
			c0,0.4-0.1,0.7-0.1,1.1c0,0,0,0,0,0C8.1,85.2,8,85.9,8,86.7c0,0.1,0,0.2,0,0.4c0,0.2,0,0.5,0,0.7c0,0.2,0,0.5,0,0.7
			c0,0.2,0,0.4,0,0.6c0,0.3,0,0.5,0,0.8c0,0.2,0,0.4,0,0.6c0,0.3,0,0.6,0,0.8c0,0.2,0,0.3,0,0.5c0,0.3,0,0.6,0,0.9
			c0,0.1,0,0.3,0,0.4c0,0.3,0,0.7,0.1,1c0,0.1,0,0.2,0,0.3c0,0.4,0.1,0.8,0.1,1.2c0,0,0,0.1,0,0.1c1.3,13.2,7.3,26.2,17.9,36.9
			c12.1,12.3,24.3,24.5,36.5,36.7c0,0,0.1,0.1,0.1,0.1c0.5,0.5,1.1,1,1.7,1.5l0,0l2.5,2.2l2.6-2.3l0,0c0.5-0.5,1.1-0.9,1.6-1.4
			c0,0,0.1-0.1,0.1-0.1c12.2-12.2,24.4-24.4,36.5-36.7c10.6-10.7,16.6-23.7,17.9-36.9c0-0.1,0-0.1,0-0.2c0-0.4,0.1-0.8,0.1-1.2
			c0-0.1,0-0.2,0-0.3c0-0.3,0-0.7,0.1-1c0-0.1,0-0.3,0-0.4c0-0.3,0-0.6,0-0.9c0-0.2,0-0.3,0-0.5c0-0.3,0-0.6,0-0.8
			c0-0.2,0-0.4,0-0.6C125.8,89.5,125.8,89.3,125.8,89z"/>
	</g>
</g>
</svg>
